<?xml version="1.0" encoding="UTF-8"?>
<svg id="Layer_2" data-name="Layer 2" xmlns="http://www.w3.org/2000/svg" viewBox="0 0 2030.39 410.46">
  <defs>
    <style>
      .cls-1 {
        fill: #7d8270;
      }
    </style>
  </defs>
  <g id="Layer_1-2" data-name="Layer 1">
    <g>
      <polygon class="cls-1" points="556.98 353.46 556.98 410.46 258.98 410.46 258.98 .46 555.98 .46 555.98 57.46 315.98 57.46 315.98 180.46 474.98 180.46 474.98 237.46 315.98 237.46 315.98 353.46 556.98 353.46"/>
      <polygon class="cls-1" points="1696.59 353.46 1696.59 410.46 1398.59 410.46 1398.59 .46 1695.59 .46 1695.59 57.46 1455.59 57.46 1455.59 180.46 1614.59 180.46 1614.59 237.46 1455.59 237.46 1455.59 353.46 1696.59 353.46"/>
      <path class="cls-1" d="M233.1.46v284.56c0,.33.17.67.15,1-.09,12.54-1.96,24.71-5.52,36.17-3.66,11.77-8.96,22.78-15.7,32.75-13.47,19.94-32.48,35.97-54.95,45.47-14.76,6.25-30.98,9.05-47.9,10.05h-.31c-.15,0-.3-.22-.45-.23-11.41-.06-22.53-1.78-33.09-4.74-10.79-3.02-20.98-7.51-30.37-13.12-18.76-11.25-34.28-27.26-44.97-46.39l49.76-27.81c4.36,7.8,10.22,14.66,17.19,20.19,6.97,5.53,15.02,9.7,23.78,12.15,5.73,1.61,11.77,2.49,18.1,2.52,6.97-.04,13.61-1.11,19.86-3.05,6.37-1.98,12.34-4.87,17.77-8.54,10.86-7.33,19.34-17.76,24.48-29.92,3.43-8.12,5.17-17,5.17-26.49V.46h57Z"/>
      <path class="cls-1" d="M233.43,285.02v1h-.01c.01-.33.01-.67.01-1Z"/>
      <path class="cls-1" d="M108.88,410.02h-.45.45Z"/>
      <polygon class="cls-1" points="1772.25 225.97 1772.25 232.9 1768.79 229.44 1772.25 225.97"/>
      <polygon class="cls-1" points="2030.39 410.46 1949.63 410.46 1772.25 232.9 1772.25 225.97 1768.79 229.44 1772.25 232.9 1772.25 410.46 1715.25 410.46 1715.25 .46 1772.25 .46 1772.25 148.84 1919.05 1.46 1996.66 1.46 1809.39 189.28 2030.39 410.46"/>
      <polygon class="cls-1" points="1772.25 225.97 1772.25 232.9 1768.79 229.44 1772.25 225.97"/>
      <polygon class="cls-1" points="884.41 .46 884.41 410.46 827.11 410.46 826.85 410.18 638.41 120.97 638.41 410.46 581.41 410.46 581.41 .46 638.86 .46 827.41 296.4 827.41 .46 884.41 .46"/>
      <polygon class="cls-1" points="827.11 410.02 827.07 410.02 827.07 409.96 827.11 410.02"/>
      <polygon class="cls-1" points="638.86 .02 638.82 .02 638.85 0 638.86 .02"/>
      <polygon class="cls-1" points="1383.46 1.65 1179.07 410.46 974.15 .51 1034.79 .3 1178.9 290.8 1323.3 1.65 1383.46 1.65"/>
    </g>
  </g>
</svg>